<svg width="20" height="21" viewBox="0 0 20 21" fill="none" xmlns="http://www.w3.org/2000/svg">
<path d="M10 0.802002C4.49 0.802002 0 5.292 0 10.802C0 16.312 4.49 20.802 10 20.802C15.51 20.802 20 16.312 20 10.802C20 5.292 15.51 0.802002 10 0.802002ZM9.658 14.773C10.682 14.945 11.601 14.324 11.899 13.427C12.029 13.037 12.43 12.802 12.841 12.802C13.513 12.802 14.003 13.464 13.785 14.099C13.207 15.787 11.531 16.965 9.609 16.783C7.529 16.586 6 14.721 6 12.632V8.972C6 6.883 7.529 5.017 9.609 4.82C11.532 4.638 13.207 5.816 13.785 7.504C14.003 8.14 13.512 8.802 12.841 8.802C12.43 8.802 12.029 8.567 11.9 8.177C11.602 7.28 10.683 6.659 9.659 6.831C8.675 6.996 8 7.926 8 8.924V12.681C8 13.678 8.675 14.608 9.658 14.773Z" fill="#E4E4E4"/>
</svg>
