<svg width="16" height="13" viewBox="0 0 16 13" fill="none" xmlns="http://www.w3.org/2000/svg">
<path d="M13.6 0.802002H2.4C1.76348 0.802002 1.15303 1.03905 0.702944 1.46101C0.252856 1.88297 0 2.45526 0 3.052V10.552C0 11.1487 0.252856 11.721 0.702944 12.143C1.15303 12.5649 1.76348 12.802 2.4 12.802H13.6C14.2365 12.802 14.847 12.5649 15.2971 12.143C15.7471 11.721 16 11.1487 16 10.552V3.052C16 2.45526 15.7471 1.88297 15.2971 1.46101C14.847 1.03905 14.2365 0.802002 13.6 0.802002ZM13.6 2.302L8.4 5.6545C8.27839 5.72033 8.14043 5.75498 8 5.75498C7.85957 5.75498 7.72162 5.72033 7.6 5.6545L2.4 2.302H13.6Z" fill="#E4E4E4"/>
</svg>
