<svg width="80" height="80" viewBox="0 0 80 80" fill="none" xmlns="http://www.w3.org/2000/svg">
<path d="M40 0C17.9443 0 0 17.9443 0 40C0 62.0557 17.9443 80 40 80C62.0557 80 80 62.0557 80 40C80 32.0052 77.6342 24.5556 73.5768 18.2982L72.0245 19.8505L71.0326 20.8424C74.49 26.4198 76.5217 32.9687 76.5217 40C76.5217 60.1391 60.1391 76.5217 40 76.5217C19.8609 76.5217 3.47826 60.1391 3.47826 40C3.47826 19.8609 19.8609 3.47826 40 3.47826C48.5449 3.47826 56.3832 6.46512 62.6087 11.4029V14.9321L58.373 19.1678C53.468 14.8302 47.0468 12.1739 40 12.1739C24.6574 12.1739 12.1739 24.6574 12.1739 40C12.1739 55.3426 24.6574 67.8261 40 67.8261C55.3426 67.8261 67.8261 55.3426 67.8261 40C67.8261 34.2104 66.0444 28.829 63.0061 24.3716L60.4857 26.892C62.917 30.6815 64.3478 35.1722 64.3478 40C64.3478 53.4261 53.4261 64.3478 40 64.3478C26.5739 64.3478 15.6522 53.4261 15.6522 40C15.6522 26.5739 26.5739 15.6522 40 15.6522C46.0892 15.6522 51.6437 17.9161 55.9137 21.627L49.7452 27.7955C47.0693 25.6492 43.6896 24.3478 40 24.3478C31.3704 24.3478 24.3478 31.3704 24.3478 40C24.3478 48.6296 31.3704 55.6522 40 55.6522C48.6296 55.6522 55.6522 48.6296 55.6522 40C55.6522 37.5878 55.0874 35.3128 54.1101 33.2711L51.4572 35.9205C51.9129 37.197 52.1739 38.5687 52.1739 40C52.1739 46.713 46.713 52.1739 40 52.1739C33.287 52.1739 27.8261 46.713 27.8261 40C27.8261 33.287 33.287 27.8261 40 27.8261C42.7304 27.8261 45.2437 28.7409 47.2758 30.2649L40.8967 36.644C40.6044 36.5644 40.303 36.5233 40 36.5217C39.0775 36.5217 38.1928 36.8882 37.5405 37.5405C36.8882 38.1928 36.5217 39.0775 36.5217 40C36.5217 40.9225 36.8882 41.8072 37.5405 42.4595C38.1928 43.1118 39.0775 43.4783 40 43.4783C40.9225 43.4783 41.8072 43.1118 42.4595 42.4595C43.1118 41.8072 43.4783 40.9225 43.4783 40C43.4781 39.696 43.4382 39.3934 43.3594 39.0999L65.0679 17.3913H69.5652L78.2609 8.69565H71.3043V1.73913L64.5686 8.47486C57.7824 3.17277 49.2597 0 40 0Z" fill="#20B46A"/>
</svg>
