<svg width="100" height="100" viewBox="0 0 100 100" fill="none" xmlns="http://www.w3.org/2000/svg">
<path d="M4.16675 8.33334V75H41.6667V83.3333H33.3334V91.6667H66.6667V83.3333H58.3334V75H95.8334V8.33334H4.16675ZM12.5001 16.6667H87.5001V66.6667H12.5001V16.6667ZM20.8334 25V58.3333H37.5001V25H20.8334ZM45.8334 25V58.3333H79.1667V25H45.8334ZM29.1667 45.8333C31.4667 45.8333 33.3334 47.7 33.3334 50C33.3334 52.3 31.4667 54.1667 29.1667 54.1667C26.8667 54.1667 25.0001 52.3 25.0001 50C25.0001 47.7 26.8667 45.8333 29.1667 45.8333ZM62.5001 45.8333C64.8001 45.8333 66.6667 47.7 66.6667 50C66.6667 52.3 64.8001 54.1667 62.5001 54.1667C60.2001 54.1667 58.3334 52.3 58.3334 50C58.3334 47.7 60.2001 45.8333 62.5001 45.8333Z" fill="#20B46A"/>
</svg>
