<svg width="101" height="101" viewBox="0 0 101 101" fill="none" xmlns="http://www.w3.org/2000/svg">
<path d="M44.5 4.65503C27.958 4.65503 14.5 18.113 14.5 34.655C14.5 46.989 20.0458 52.9322 24.0938 57.2722C26.6518 60.0122 28.5 61.991 28.5 64.655V74.655V76.655V84.655C28.5 87.9459 31.2091 90.655 34.5 90.655H36.7891C37.6889 94.0864 40.7998 96.655 44.5 96.655C48.2002 96.655 51.3111 94.0864 52.2109 90.655H54.5C57.7909 90.655 60.5 87.9459 60.5 84.655V74.655V64.655C60.5 62.131 61.4641 60.2716 62.9141 58.4636L59.1367 56.8425C57.6127 58.9645 56.5 61.417 56.5 64.655V74.655H32.5V64.655C32.5 60.415 29.8375 57.5617 27.0195 54.5417C23.0255 50.2637 18.5 45.413 18.5 34.655C18.5 20.319 30.164 8.65503 44.5 8.65503C47.298 8.65503 49.974 9.13572 52.5 9.95972V5.78394C49.95 5.06794 47.276 4.65503 44.5 4.65503ZM65.3477 6.18628L57.0273 9.4519L58.582 17.3308C58.1776 17.6907 57.7897 18.0669 57.418 18.4636L49.7383 16.7878L46.1836 25.0808L52.6172 29.2332C52.574 29.7059 52.5 30.1543 52.5 30.655C52.5 31.0379 52.5555 31.3792 52.582 31.7449L46.0117 35.5691L49.3008 43.948L57.0391 42.3855C57.4654 42.876 57.9164 43.3411 58.3945 43.7839L56.6094 51.4089L64.8867 54.9558L69.2422 48.5574C69.6614 48.5921 70.0558 48.655 70.5 48.655C70.8843 48.655 71.2267 48.5996 71.5938 48.573L75.4141 55.1433L83.7773 51.8582L82.2734 44.0378C82.9269 43.4632 83.5293 42.8389 84.0938 42.1746L91.2148 44.2605L94.8359 35.8152L88.4023 31.9011C88.4363 31.4849 88.5 31.0942 88.5 30.655C88.5 30.1988 88.431 29.7936 88.3945 29.3621L94.7969 25.5339L91.5039 17.1589L83.8398 18.7957C83.3608 18.258 82.8516 17.7524 82.3125 17.2761L84.0117 9.90112L75.6953 6.33472L71.6055 12.7371C71.235 12.71 70.8903 12.655 70.5 12.655C70.1283 12.655 69.7992 12.7082 69.4453 12.7332L65.3477 6.18628ZM63.7188 11.1238L67.375 16.9636L68.6523 16.7917C69.2893 16.7071 69.9008 16.655 70.5 16.655C71.1118 16.655 71.7342 16.7088 72.3867 16.7957L73.6523 16.9675L77.2383 11.3464L79.3633 12.2566L77.8789 18.7019L78.9141 19.4832C79.941 20.259 80.8527 21.1671 81.6289 22.1863L82.3984 23.198L89.0234 21.78L89.832 23.8425L84.1328 27.2527L84.3281 28.573C84.4334 29.2895 84.5 29.979 84.5 30.655C84.5 31.3168 84.4371 31.9892 84.3359 32.6863L84.1445 33.9949L89.793 37.4285L88.9375 39.4246L82.7227 37.6042L81.8945 38.7644C81.0651 39.9309 80.0616 40.9579 78.9141 41.823L77.918 42.573L79.2227 49.3503L77.1445 50.1667L73.75 44.3191L72.418 44.5066C71.7607 44.5981 71.1245 44.655 70.5 44.655C69.8581 44.655 69.1989 44.5912 68.5117 44.4949L67.2812 44.323L63.4336 49.9832L61.2695 49.0535L62.8203 42.4167L61.8242 41.6277C60.8724 40.8746 60.0271 39.9967 59.293 39.0144L58.5352 38.0027L51.7969 39.3621L50.9883 37.2996L56.8359 33.8972L56.6484 32.5691C56.5568 31.9114 56.5 31.2772 56.5 30.655C56.5 29.953 56.5713 29.2407 56.6836 28.5027L56.8789 27.2253L51.1914 23.5496L52.1133 21.4011L58.8164 22.8621L59.5898 21.8933C60.2809 21.0321 61.0798 20.2574 61.9688 19.573L62.9531 18.8191L61.5977 11.9558L63.7188 11.1238ZM70.5 22.655C66.1054 22.655 62.5 26.2604 62.5 30.655C62.5 35.0496 66.1054 38.655 70.5 38.655C74.8946 38.655 78.5 35.0496 78.5 30.655C78.5 26.2604 74.8946 22.655 70.5 22.655ZM70.5 26.655C72.7328 26.655 74.5 28.4222 74.5 30.655C74.5 32.8879 72.7328 34.655 70.5 34.655C68.2672 34.655 66.5 32.8879 66.5 30.655C66.5 28.4222 68.2672 26.655 70.5 26.655ZM24.4688 32.6277C23.939 32.636 23.4342 32.8541 23.0651 33.2342C22.696 33.6143 22.4927 34.1253 22.5 34.655C22.5 43.5555 26.2391 47.841 29.9453 51.8113C30.1226 52.0109 30.338 52.173 30.5789 52.2881C30.8197 52.4032 31.0812 52.4689 31.3479 52.4813C31.6146 52.4937 31.881 52.4527 32.1316 52.3605C32.3821 52.2683 32.6117 52.127 32.8067 51.9447C33.0018 51.7624 33.1584 51.5429 33.2673 51.2992C33.3762 51.0555 33.4352 50.7924 33.4408 50.5255C33.4464 50.2586 33.3986 49.9933 33.3001 49.7452C33.2016 49.497 33.0544 49.2712 32.8672 49.0808C29.1614 45.1111 26.5 42.5386 26.5 34.655C26.5037 34.3875 26.4536 34.1219 26.3528 33.874C26.2519 33.6261 26.1024 33.401 25.913 33.2119C25.7236 33.0229 25.4982 32.8738 25.2501 32.7734C25.002 32.6731 24.7363 32.6235 24.4688 32.6277ZM36.457 54.9519C36.1106 54.9575 35.7716 55.053 35.4732 55.229C35.1748 55.4051 34.9273 55.6556 34.7548 55.956C34.5823 56.2565 34.4908 56.5966 34.4893 56.9431C34.4878 57.2895 34.5763 57.6304 34.7461 57.9324C35.01 58.4152 35.2494 58.9101 35.4609 59.4207C36.1032 60.9666 36.5 62.6687 36.5 64.655C36.4963 64.9201 36.5452 65.1832 36.644 65.4291C36.7429 65.6751 36.8896 65.8989 37.0757 66.0876C37.2618 66.2764 37.4835 66.4262 37.728 66.5285C37.9725 66.6308 38.2349 66.6835 38.5 66.6835C38.7651 66.6835 39.0275 66.6308 39.272 66.5285C39.5165 66.4262 39.7382 66.2764 39.9243 66.0876C40.1104 65.8989 40.2571 65.6751 40.356 65.4291C40.4548 65.1832 40.5037 64.9201 40.5 64.655C40.5 62.1254 39.978 59.8675 39.1562 57.8894C38.8838 57.232 38.578 56.6075 38.2539 56.0144C38.0813 55.689 37.8221 55.4176 37.5051 55.2302C37.188 55.0427 36.8253 54.9464 36.457 54.9519ZM32.5 78.655H56.5V84.655C56.5 85.7641 55.6091 86.655 54.5 86.655H50.8359C50.62 86.6193 50.3996 86.6193 50.1836 86.655H38.8086C38.6963 86.6363 38.5826 86.6271 38.4688 86.6277C38.3719 86.6298 38.2753 86.6389 38.1797 86.655H34.5C33.3909 86.655 32.5 85.7641 32.5 84.655V78.655ZM41.043 90.655H47.957C47.2702 91.8512 45.9948 92.655 44.5 92.655C43.0052 92.655 41.7298 91.8512 41.043 90.655Z" fill="white"/>
</svg>
