<svg width="159" height="40" viewBox="0 0 159 40" fill="none" xmlns="http://www.w3.org/2000/svg">
<path d="M36.6179 10.1818H41.7848L46.7599 19.5781H46.973L51.9482 10.1818H57.1151L49.157 24.2869V32H44.576V24.2869L36.6179 10.1818ZM63.5151 32.3196C61.8603 32.3196 60.4292 31.968 59.2218 31.2649C58.0215 30.5547 57.0946 29.5675 56.4412 28.3033C55.7878 27.032 55.4611 25.5582 55.4611 23.8821C55.4611 22.1918 55.7878 20.7145 56.4412 19.4503C57.0946 18.179 58.0215 17.1918 59.2218 16.4886C60.4292 15.7784 61.8603 15.4233 63.5151 15.4233C65.1699 15.4233 66.5975 15.7784 67.7978 16.4886C69.0051 17.1918 69.9355 18.179 70.589 19.4503C71.2424 20.7145 71.5691 22.1918 71.5691 23.8821C71.5691 25.5582 71.2424 27.032 70.589 28.3033C69.9355 29.5675 69.0051 30.5547 67.7978 31.2649C66.5975 31.968 65.1699 32.3196 63.5151 32.3196ZM63.5364 28.804C64.2892 28.804 64.9178 28.5909 65.4221 28.1648C65.9263 27.7315 66.3063 27.142 66.562 26.3963C66.8248 25.6506 66.9561 24.8018 66.9561 23.8501C66.9561 22.8984 66.8248 22.0497 66.562 21.304C66.3063 20.5582 65.9263 19.9687 65.4221 19.5355C64.9178 19.1023 64.2892 18.8857 63.5364 18.8857C62.7765 18.8857 62.1373 19.1023 61.6188 19.5355C61.1074 19.9687 60.7203 20.5582 60.4576 21.304C60.2019 22.0497 60.074 22.8984 60.074 23.8501C60.074 24.8018 60.2019 25.6506 60.4576 26.3963C60.7203 27.142 61.1074 27.7315 61.6188 28.1648C62.1373 28.5909 62.7765 28.804 63.5364 28.804ZM85.0137 25.0327V15.6364H89.552V32H85.1948V29.0277H85.0243C84.655 29.9865 84.0407 30.7571 83.1813 31.3395C82.329 31.9219 81.2885 32.2131 80.0598 32.2131C78.9661 32.2131 78.0037 31.9645 77.1728 31.4673C76.3418 30.9702 75.6919 30.2635 75.2232 29.3473C74.7615 28.4311 74.5272 27.3338 74.5201 26.0554V15.6364H79.0584V25.2457C79.0655 26.2116 79.3248 26.9751 79.8361 27.5362C80.3475 28.0973 81.0328 28.3778 81.8922 28.3778C82.4391 28.3778 82.9505 28.2536 83.4263 28.005C83.9022 27.7493 84.2857 27.3729 84.5769 26.8757C84.8752 26.3786 85.0208 25.7642 85.0137 25.0327ZM93.1822 32V15.6364H97.582V18.4915H97.7525C98.0508 17.4759 98.5515 16.7088 99.2546 16.1903C99.9577 15.6648 100.767 15.402 101.684 15.402C101.911 15.402 102.156 15.4162 102.419 15.4446C102.681 15.473 102.912 15.5121 103.111 15.5618V19.5888C102.898 19.5249 102.603 19.468 102.227 19.4183C101.85 19.3686 101.506 19.3438 101.194 19.3438C100.526 19.3438 99.9293 19.4893 99.4038 19.7805C98.8853 20.0646 98.4734 20.4624 98.168 20.9737C97.8697 21.4851 97.7205 22.0746 97.7205 22.7422V32H93.1822Z" fill="white"/>
<path d="M114.279 10.1818H118.838V25.3949C118.838 26.8011 118.522 28.0227 117.89 29.0597C117.265 30.0966 116.395 30.8956 115.28 31.4567C114.165 32.0178 112.869 32.2983 111.392 32.2983C110.078 32.2983 108.884 32.0675 107.812 31.6058C106.747 31.1371 105.901 30.4268 105.276 29.4751C104.651 28.5163 104.343 27.3125 104.35 25.8636H108.941C108.955 26.4389 109.073 26.9325 109.293 27.3445C109.52 27.7493 109.829 28.0618 110.22 28.282C110.617 28.495 111.086 28.6016 111.626 28.6016C112.194 28.6016 112.673 28.4808 113.064 28.2393C113.462 27.9908 113.764 27.6286 113.97 27.1527C114.176 26.6768 114.279 26.0909 114.279 25.3949V10.1818ZM134.488 16.4567C134.403 15.5973 134.037 14.9297 133.391 14.4538C132.744 13.978 131.867 13.7401 130.759 13.7401C130.007 13.7401 129.371 13.8466 128.852 14.0597C128.334 14.2656 127.936 14.5533 127.659 14.9226C127.389 15.2919 127.254 15.7109 127.254 16.1797C127.24 16.5703 127.322 16.9112 127.499 17.2024C127.684 17.4936 127.936 17.7457 128.256 17.9588C128.575 18.1648 128.945 18.3459 129.364 18.5021C129.783 18.6513 130.23 18.7791 130.706 18.8857L132.666 19.3544C133.618 19.5675 134.492 19.8516 135.287 20.2067C136.083 20.5618 136.771 20.9986 137.354 21.517C137.936 22.0355 138.387 22.6463 138.707 23.3494C139.034 24.0526 139.2 24.8587 139.208 25.7678C139.2 27.103 138.86 28.2607 138.185 29.2408C137.517 30.2138 136.551 30.9702 135.287 31.5099C134.03 32.0426 132.514 32.3089 130.738 32.3089C128.977 32.3089 127.443 32.0391 126.136 31.4993C124.836 30.9595 123.82 30.1605 123.089 29.1023C122.365 28.0369 121.985 26.7195 121.949 25.1499H126.413C126.463 25.8814 126.672 26.4922 127.041 26.9822C127.418 27.4652 127.919 27.831 128.544 28.0795C129.176 28.321 129.889 28.4418 130.685 28.4418C131.466 28.4418 132.144 28.3281 132.72 28.1009C133.302 27.8736 133.753 27.5575 134.073 27.1527C134.392 26.7479 134.552 26.2827 134.552 25.7571C134.552 25.267 134.406 24.8551 134.115 24.5213C133.831 24.1875 133.412 23.9034 132.858 23.669C132.311 23.4347 131.64 23.2216 130.845 23.0298L128.469 22.4332C126.629 21.9858 125.177 21.2862 124.112 20.3345C123.046 19.3828 122.517 18.1009 122.524 16.4886C122.517 15.1676 122.869 14.0135 123.579 13.0263C124.296 12.0391 125.28 11.2685 126.53 10.7145C127.78 10.1605 129.2 9.88352 130.791 9.88352C132.411 9.88352 133.824 10.1605 135.031 10.7145C136.246 11.2685 137.191 12.0391 137.865 13.0263C138.54 14.0135 138.888 15.157 138.909 16.4567H134.488Z" fill="#FFFF00"/>
<path d="M3 3L14.5 12.5M14.5 12.5L30 3M14.5 12.5V32C10.4395 36.5916 7.91821 36.5645 3 32V24.5" stroke="white" stroke-width="5"/>
</svg>
