<svg width="80" height="80" viewBox="0 0 80 80" fill="none" xmlns="http://www.w3.org/2000/svg">
<path d="M59.1229 0C47.6106 0 38.2458 9.36479 38.2458 20.8771C38.2458 23.5139 38.8235 26.008 39.7137 28.3254L2.47202 65.5671C-0.824007 68.8632 -0.824007 74.232 2.47202 77.528C5.76805 80.824 11.1368 80.824 14.4329 77.528L51.6746 40.2863C53.992 41.1765 56.4861 41.7542 59.1229 41.7542C70.6352 41.7542 80 32.3894 80 20.8771C80 18.5869 79.6398 16.4054 78.967 14.353L78.0428 11.6346L76.0855 13.6462L63.9072 25.7702L57.0026 22.9974L54.2298 16.0928L66.3538 3.91446L68.3654 1.95723L65.647 1.03298C63.5946 0.360184 61.4131 0 59.1229 0ZM59.1229 3.47952C59.9588 3.47952 60.7131 3.74456 61.5151 3.86009L50.9134 14.4074L50.0979 15.2229L54.0124 25.009L54.2842 25.7158L54.991 25.9876L64.7771 29.9021L65.5926 29.0866L76.1399 18.4849C76.2554 19.2869 76.5205 20.0412 76.5205 20.8771C76.5205 30.5069 68.7527 38.2747 59.1229 38.2747C56.5608 38.2747 54.1415 37.697 51.9464 36.698L50.8591 36.2087L11.9863 75.0814C10.0223 77.0455 6.88258 77.0455 4.91855 75.0814C2.95453 73.1174 2.95453 69.9777 4.91855 68.0137L43.7913 29.141L43.302 28.0536C42.303 25.8585 41.7253 23.4392 41.7253 20.8771C41.7253 11.2473 49.4931 3.47952 59.1229 3.47952Z" fill="#20B46A"/>
</svg>
