<svg width="50" height="50" viewBox="0 0 50 50" fill="none" xmlns="http://www.w3.org/2000/svg">
<path d="M8.85416 9.375C6.85942 9.375 5.20833 11.0261 5.20833 13.0208V32.8125C5.20833 34.8072 6.85942 36.4583 8.85416 36.4583H41.1458C43.1406 36.4583 44.7917 34.8072 44.7917 32.8125V13.0208C44.7917 11.0261 43.1406 9.375 41.1458 9.375H8.85416ZM8.85416 12.5H41.1458C41.4532 12.5 41.6667 12.7135 41.6667 13.0208V32.8125C41.6667 33.1198 41.4532 33.3333 41.1458 33.3333H8.85416C8.54682 33.3333 8.33333 33.1198 8.33333 32.8125V13.0208C8.33333 12.7135 8.54682 12.5 8.85416 12.5ZM20.7255 17.1875C20.1989 17.2119 19.7306 17.6437 19.7306 18.2312V27.6143C19.7306 28.3987 20.5628 28.9006 21.2565 28.536L30.1737 23.8444C30.9154 23.4548 30.9144 22.3918 30.1717 22.0011L21.2565 17.3075C21.0833 17.2164 20.901 17.1794 20.7255 17.1875ZM2.60416 39.5833C2.39711 39.5804 2.19155 39.6187 1.99941 39.6959C1.80727 39.7731 1.63239 39.8877 1.48494 40.0331C1.33749 40.1785 1.2204 40.3517 1.14048 40.5427C1.06056 40.7338 1.01941 40.9388 1.01941 41.1458C1.01941 41.3529 1.06056 41.5579 1.14048 41.7489C1.2204 41.94 1.33749 42.1132 1.48494 42.2586C1.63239 42.404 1.80727 42.5186 1.99941 42.5958C2.19155 42.673 2.39711 42.7113 2.60416 42.7083H47.3958C47.6029 42.7113 47.8084 42.673 48.0006 42.5958C48.1927 42.5186 48.3676 42.404 48.515 42.2586C48.6625 42.1132 48.7796 41.94 48.8595 41.7489C48.9394 41.5579 48.9806 41.3529 48.9806 41.1458C48.9806 40.9388 48.9394 40.7338 48.8595 40.5427C48.7796 40.3517 48.6625 40.1785 48.515 40.0331C48.3676 39.8877 48.1927 39.7731 48.0006 39.6959C47.8084 39.6187 47.6029 39.5804 47.3958 39.5833H2.60416Z" fill="white"/>
</svg>
