<svg width="349" height="15" viewBox="0 0 349 15" fill="none" xmlns="http://www.w3.org/2000/svg">
<path d="M321.327 1.84615C313.757 1.5 306.057 1.15385 298.356 0.807692C295.877 0.692308 293.266 0.692308 290.787 0.576923C285.305 0.461538 279.823 0.346154 274.342 0.230769C271.34 0.115385 268.208 0.115385 265.206 0C264.292 0 263.379 0 262.595 0C260.638 0 258.68 0 256.592 0C247.586 0 238.581 0 229.575 0C227.487 0 225.268 0 223.18 0.115385C217.829 0.230769 212.608 0.230769 207.257 0.346154C201.254 0.461538 195.25 0.461538 189.246 0.576923C179.588 0.807692 169.8 1.03846 160.141 1.26923C154.529 1.38462 148.917 1.5 143.305 1.61538C133.647 1.96154 123.989 2.30769 114.331 2.65385C108.98 2.88462 103.759 3 98.408 3.23077C88.3584 3.80769 78.3088 4.26923 68.2592 4.73077C62.9081 4.96154 57.557 5.19231 52.2059 5.53846C42.2867 6.23077 32.2371 7.03846 22.318 7.84615C20.2298 7.96154 18.011 8.19231 15.7923 8.30769C11.6158 8.65385 7.30882 9.23077 3.00184 9.69231C2.74081 9.69231 2.47978 9.80769 2.21875 9.80769C1.69669 9.80769 1.30515 10.0385 0.913602 10.3846C0.261029 10.9615 0 11.6538 0 12.3462C0 13.0385 0.261029 13.7308 0.913602 14.1923C1.43566 14.6538 2.34926 15 3.00184 15C8.22242 14.5385 13.3125 13.9615 18.5331 13.5C23.3621 13.1538 28.1912 12.8077 33.0202 12.4615C38.2408 12.1154 43.4614 11.6538 48.8125 11.3077C50.9007 11.1923 52.9889 10.9615 55.2077 10.8462C63.4301 10.5 71.522 10.0385 79.7444 9.69231C84.8345 9.46154 89.9246 9.23077 95.0147 9C97.1029 8.88461 99.1911 8.76923 101.279 8.65385C109.371 8.30769 117.463 8.07692 125.555 7.73077C130.515 7.61538 135.344 7.38461 140.303 7.26923C142 7.26923 143.566 7.15385 145.263 7.15385C154.007 6.92308 162.752 6.80769 171.496 6.57692C176.325 6.46154 181.285 6.34615 186.114 6.23077C187.811 6.23077 189.638 6.11538 191.334 6.11538C200.34 6 209.345 6 218.481 5.88462C224.094 5.88462 229.706 5.76923 235.318 5.76923C244.845 5.76923 254.504 5.76923 264.031 5.88462C265.858 5.88462 267.816 6 269.643 6C274.994 6.11538 280.215 6.23077 285.566 6.46154C289.481 6.57692 293.527 6.69231 297.443 6.80769C300.314 6.92308 303.055 7.03846 305.926 7.15385C314.149 7.5 322.502 7.96154 330.724 8.42308C332.812 8.53846 334.901 8.65385 336.989 8.76923C339.208 8.88462 341.557 9 343.776 9.23077C344.167 9.23077 344.428 9.34615 344.82 9.46154C345.733 9.57692 346.516 9.57692 347.299 9.11538C348.083 8.76923 348.605 8.07692 348.866 7.38462C349.388 5.88462 348.344 4.26923 346.516 3.80769C344.95 3.46154 343.384 3.34615 341.948 3.11538C340.904 3 339.86 2.88462 338.816 2.88462C336.728 2.65385 334.64 2.65385 332.682 2.42308C329.027 2.30769 325.112 2.07692 321.327 1.84615Z" fill="#20B46A"/>
</svg>
