<svg width="230" height="15" viewBox="0 0 230 15" fill="none" xmlns="http://www.w3.org/2000/svg">
<path d="M211.763 1.84615C206.774 1.5 201.699 1.15385 196.625 0.807692C194.99 0.692308 193.27 0.692308 191.636 0.576923C188.023 0.461538 184.411 0.346154 180.798 0.230769C178.82 0.115385 176.756 0.115385 174.777 0C174.175 0 173.573 0 173.057 0C171.767 0 170.477 0 169.101 0C163.166 0 157.231 0 151.296 0C149.92 0 148.458 0 147.081 0.115385C143.555 0.230769 140.114 0.230769 136.588 0.346154C132.631 0.461538 128.675 0.461538 124.718 0.576923C118.353 0.807692 111.902 1.03846 105.537 1.26923C101.839 1.38462 98.1403 1.5 94.4417 1.61538C88.0768 1.96154 81.7119 2.30769 75.347 2.65385C71.8204 2.88462 68.3799 3 64.8534 3.23077C58.2305 3.80769 51.6075 4.26923 44.9845 4.73077C41.458 4.96154 37.9315 5.19231 34.405 5.53846C27.8681 6.23077 21.2451 7.03846 14.7081 7.84615C13.3319 7.96154 11.8697 8.19231 10.4075 8.30769C7.65511 8.65385 4.8167 9.23077 1.97829 9.69231C1.80626 9.69231 1.63424 9.80769 1.46221 9.80769C1.11816 9.80769 0.860125 10.0385 0.602088 10.3846C0.172025 10.9615 0 11.6538 0 12.3462C0 13.0385 0.172025 13.7308 0.602088 14.1923C0.946138 14.6538 1.54823 15 1.97829 15C5.41879 14.5385 8.77328 13.9615 12.2138 13.5C15.3962 13.1538 18.5787 12.8077 21.7612 12.4615C25.2017 12.1154 28.6422 11.6538 32.1687 11.3077C33.5449 11.1923 34.9211 10.9615 36.3833 10.8462C41.8021 10.5 47.1349 10.0385 52.5536 9.69231C55.9081 9.46154 59.2626 9.23077 62.6171 9C63.9933 8.88461 65.3695 8.76923 66.7457 8.65385C72.0785 8.30769 77.4113 8.07692 82.744 7.73077C86.0125 7.61538 89.195 7.38461 92.4635 7.26923C93.5816 7.26923 94.6138 7.15385 95.7319 7.15385C101.495 6.92308 107.258 6.80769 113.02 6.57692C116.203 6.46154 119.471 6.34615 122.654 6.23077C123.772 6.23077 124.976 6.11538 126.094 6.11538C132.029 6 137.964 6 143.985 5.88462C147.683 5.88462 151.382 5.76923 155.081 5.76923C161.359 5.76923 167.724 5.76923 174.003 5.88462C175.207 5.88462 176.498 6 177.702 6C181.228 6.11538 184.669 6.23077 188.195 6.46154C190.776 6.57692 193.442 6.69231 196.023 6.80769C197.915 6.92308 199.721 7.03846 201.613 7.15385C207.032 7.5 212.537 7.96154 217.956 8.42308C219.332 8.53846 220.708 8.65385 222.084 8.76923C223.547 8.88462 225.095 9 226.557 9.23077C226.815 9.23077 226.987 9.34615 227.245 9.46154C227.847 9.57692 228.363 9.57692 228.879 9.11538C229.395 8.76923 229.739 8.07692 229.911 7.38462C230.255 5.88462 229.567 4.26923 228.363 3.80769C227.331 3.46154 226.299 3.34615 225.353 3.11538C224.665 3 223.977 2.88462 223.288 2.88462C221.912 2.65385 220.536 2.65385 219.246 2.42308C216.838 2.30769 214.257 2.07692 211.763 1.84615Z" fill="#20B46A"/>
</svg>
